<svg width="563" height="277" viewBox="0 0 563 277" fill="none" xmlns="http://www.w3.org/2000/svg">
<rect width="563" height="277" fill="#F5F5F5"/>
<rect x="94" width="300" height="120" rx="5" fill="#FFDD47"/>
<circle cx="503" cy="60" r="60" fill="#FFDD47"/>
<g filter="url(#filter0_d_0_1)">
<path d="M212.286 33.8H222.766V89H212.286V33.8ZM232.665 33.8H254.185C261.545 33.8 267.225 35.8 271.225 39.72C275.225 43.72 277.305 49.8 277.305 57.96V64.76C277.305 73 275.225 79.08 271.145 83.08C266.985 87.08 261.225 89 253.785 89H232.665V33.8ZM254.105 79.88C258.425 79.88 261.625 78.68 263.705 76.28C265.785 73.88 266.825 70.04 266.825 64.76V58.52C266.825 53.08 265.785 49.16 263.705 46.68C261.625 44.2 258.425 42.92 254.105 42.92H243.145V79.88H254.105Z" fill="white"/>
</g>
<rect x="155" y="157" width="403" height="120" rx="5" fill="#FF9500"/>
<g filter="url(#filter1_d_0_1)">
<path d="M35.2175 244C31.8575 242.4 29.2175 240 27.3775 236.96C25.5375 233.92 24.6575 230.32 24.6575 226.16V190.8H35.1375V225.84C35.1375 229.6 36.0975 232.48 38.1775 234.4C40.1775 236.4 43.0575 237.36 46.8975 237.36C50.6575 237.36 53.6175 236.4 55.6975 234.4C57.7775 232.48 58.8175 229.6 58.8175 225.84V190.8H69.2975V226.16C69.2975 230.32 68.3375 233.92 66.4975 236.96C64.6575 240 62.0175 242.4 58.6575 244C55.2975 245.68 51.3775 246.48 46.8975 246.48C42.4175 246.48 38.5775 245.68 35.2175 244ZM78.32 204.4H88V208.88C89.44 207.28 91.28 206.08 93.36 205.2C95.44 204.4 97.76 203.92 100.24 203.92C105.04 203.92 108.72 205.36 111.44 208.24C114.08 211.12 115.44 215.04 115.44 220.08V246H105.52V222.08C105.52 215.84 102.72 212.72 97.28 212.72C94.4 212.72 92.24 213.6 90.64 215.2C89.04 216.8 88.24 219.28 88.24 222.48V246H78.32V204.4ZM124.501 190.56H134.341V198.48H124.501V190.56ZM124.501 204.4H134.341V246H124.501V204.4ZM222.309 190.8V246H211.829L186.309 209.44V246H175.829V190.8H186.309L211.829 227.44V190.8H222.309ZM231.767 190.56H241.607V198.48H231.767V190.56ZM231.767 204.4H241.607V246H231.767V204.4ZM255.064 241.84C251.704 238.64 250.024 233.84 250.024 227.6V222.64C250.024 216.48 251.704 211.76 255.064 208.56C258.424 205.36 263.064 203.68 268.984 203.68C274.744 203.68 279.304 205.04 282.584 207.76C285.784 210.48 287.464 214.24 287.464 219.04V219.52H277.784V219.2C277.784 217.12 276.984 215.52 275.464 214.32C273.944 213.12 271.864 212.48 269.224 212.48C266.104 212.48 263.784 213.36 262.184 214.96C260.584 216.64 259.864 219.28 259.864 222.8V227.52C259.864 231.2 260.664 233.84 262.264 235.44C263.864 237.04 266.264 237.84 269.464 237.84C272.024 237.84 274.024 237.28 275.464 236.16C276.904 235.04 277.704 233.44 277.704 231.44V231.12H287.384V231.44C287.384 236.24 285.704 239.92 282.504 242.64C279.224 245.36 274.744 246.72 268.984 246.72C263.064 246.72 258.424 245.12 255.064 241.84ZM311.191 227.36L305.271 233.12V246H295.351V190.8H305.271V222L322.151 204.4H334.871L318.151 220.64L336.071 246H323.511L311.191 227.36ZM339.961 204.4H349.641V208.88C351.081 207.28 352.921 206.08 355.001 205.2C357.081 204.4 359.401 203.92 361.881 203.92C366.681 203.92 370.361 205.36 373.081 208.24C375.721 211.12 377.081 215.04 377.081 220.08V246H367.161V222.08C367.161 215.84 364.361 212.72 358.921 212.72C356.041 212.72 353.881 213.6 352.281 215.2C350.681 216.8 349.881 219.28 349.881 222.48V246H339.961V204.4ZM416.542 207.92C419.742 210.64 421.342 214.48 421.342 219.44V246H411.742V242.16C410.062 243.76 408.302 244.88 406.462 245.52C404.542 246.16 402.302 246.48 399.662 246.48C394.622 246.48 390.782 245.36 388.222 243.12C385.662 240.88 384.382 237.76 384.382 233.6C384.382 229.68 385.742 226.64 388.462 224.56C391.182 222.48 395.182 221.44 400.382 221.44H411.502V218.96C411.502 214 408.542 211.52 402.702 211.52C399.982 211.52 398.062 212 396.862 212.96C395.662 213.92 395.102 215.2 395.102 216.64V216.88H385.662V216.64C385.662 212.72 387.182 209.6 390.302 207.36C393.422 205.12 397.662 203.92 402.942 203.92C408.862 203.92 413.342 205.28 416.542 207.92ZM411.502 230.8V228.24H402.222C399.342 228.24 397.262 228.72 395.982 229.52C394.622 230.32 393.982 231.6 393.982 233.36C393.982 235.04 394.622 236.32 395.902 237.2C397.182 238.16 399.182 238.56 401.822 238.56C408.222 238.56 411.502 236 411.502 230.8ZM429.961 204.4H439.641V208.88C441.081 207.28 442.841 206.08 444.921 205.2C447.001 204.4 449.161 203.92 451.401 203.92C453.881 203.92 456.201 204.4 458.281 205.36C460.361 206.32 462.041 207.68 463.481 209.52C467.001 205.84 471.401 203.92 476.841 203.92C481.961 203.92 485.881 205.36 488.761 208.24C491.561 211.12 493.001 215.04 493.001 220.08V246H483.081V222.08C483.081 219.04 482.361 216.72 481.001 215.12C479.641 213.52 477.641 212.72 475.081 212.72C472.361 212.72 470.201 213.6 468.681 215.28C467.161 216.96 466.441 219.28 466.441 222.32V246H456.521V221.68C456.521 218.72 455.801 216.48 454.441 214.96C453.081 213.52 451.161 212.72 448.601 212.72C445.801 212.72 443.641 213.6 442.121 215.28C440.601 216.96 439.881 219.36 439.881 222.48V246H429.961V204.4ZM510.879 227.92V228.08C510.879 234.8 514.239 238.08 521.119 238.08C523.359 238.08 525.279 237.68 526.719 236.8C528.159 236 529.039 234.8 529.279 233.2L529.359 232.96H539.039V233.44C538.719 237.44 536.959 240.72 533.679 243.12C530.399 245.52 526.079 246.72 520.719 246.72C514.559 246.72 509.759 245.04 506.239 241.68C502.719 238.32 501.039 233.44 501.039 226.96V223.36C501.039 217.04 502.719 212.16 506.159 208.8C509.519 205.44 514.239 203.68 520.239 203.68C526.159 203.68 530.879 205.36 534.319 208.72C537.679 212.08 539.439 216.88 539.439 223.12V227.92H510.879ZM510.879 221.12H529.519V220.56C529.519 217.84 528.639 215.76 526.959 214.32C525.279 212.88 523.039 212.16 520.239 212.16C514.319 212.16 511.199 215.2 510.879 221.12Z" fill="#662D14"/>
<path d="M142.758 213.76H167.478V222.96H142.758V213.76Z" fill="#55240F"/>
</g>
<path d="M197 120L237 158H157L197 120Z" fill="#FF9500"/>
<path d="M351.5 157L311 119L392 119L351.5 157Z" fill="#FFDD47"/>
<g filter="url(#filter2_d_0_1)">
<path d="M518.368 99V88.35H507.789V81.25H518.368V70.6H525.421V81.25H536V88.35H525.421V99H518.368ZM476.053 91.9C474.113 91.9 472.453 91.2048 471.072 89.8144C469.691 88.424 469 86.7525 469 84.8V35.1C469 33.1475 469.691 31.476 471.072 30.0856C472.453 28.6952 474.113 28 476.053 28H525.421C527.361 28 529.021 28.6952 530.402 30.0856C531.783 31.476 532.474 33.1475 532.474 35.1V66.4287C531.416 65.7779 530.299 65.2454 529.124 64.8312C527.948 64.4171 526.714 64.0917 525.421 63.855V35.1H476.053V84.8H500.737C500.737 86.0425 500.825 87.2554 501.001 88.4387C501.178 89.6221 501.471 90.7758 501.883 91.9H476.053ZM486.632 77.7C487.631 77.7 488.468 77.3598 489.144 76.6794C489.82 75.999 490.158 75.1558 490.158 74.15C490.158 73.1442 489.82 72.301 489.144 71.6206C488.468 70.9402 487.631 70.6 486.632 70.6C485.632 70.6 484.795 70.9402 484.119 71.6206C483.443 72.301 483.105 73.1442 483.105 74.15C483.105 75.1558 483.443 75.999 484.119 76.6794C484.795 77.3598 485.632 77.7 486.632 77.7ZM486.632 63.5C487.631 63.5 488.468 63.1598 489.144 62.4794C489.82 61.799 490.158 60.9558 490.158 59.95C490.158 58.9442 489.82 58.101 489.144 57.4206C488.468 56.7402 487.631 56.4 486.632 56.4C485.632 56.4 484.795 56.7402 484.119 57.4206C483.443 58.101 483.105 58.9442 483.105 59.95C483.105 60.9558 483.443 61.799 484.119 62.4794C484.795 63.1598 485.632 63.5 486.632 63.5ZM486.632 49.3C487.631 49.3 488.468 48.9598 489.144 48.2794C489.82 47.599 490.158 46.7558 490.158 45.75C490.158 44.7442 489.82 43.901 489.144 43.2206C488.468 42.5402 487.631 42.2 486.632 42.2C485.632 42.2 484.795 42.5402 484.119 43.2206C483.443 43.901 483.105 44.7442 483.105 45.75C483.105 46.7558 483.443 47.599 484.119 48.2794C484.795 48.9598 485.632 49.3 486.632 49.3ZM497.211 63.5H518.368V56.4H497.211V63.5ZM497.211 49.3H518.368V42.2H497.211V49.3ZM497.211 77.7H501.971C502.441 76.3392 503.029 75.0671 503.734 73.8837C504.439 72.7004 505.262 71.6058 506.203 70.6H497.211V77.7Z" fill="white"/>
</g>
<defs>
<filter id="filter0_d_0_1" x="208.286" y="33.8" width="73.0194" height="63.2" filterUnits="userSpaceOnUse" color-interpolation-filters="sRGB">
<feFlood flood-opacity="0" result="BackgroundImageFix"/>
<feColorMatrix in="SourceAlpha" type="matrix" values="0 0 0 0 0 0 0 0 0 0 0 0 0 0 0 0 0 0 127 0" result="hardAlpha"/>
<feOffset dy="4"/>
<feGaussianBlur stdDeviation="2"/>
<feComposite in2="hardAlpha" operator="out"/>
<feColorMatrix type="matrix" values="0 0 0 0 1 0 0 0 0 0.584314 0 0 0 0 0 0 0 0 0.25 0"/>
<feBlend mode="normal" in2="BackgroundImageFix" result="effect1_dropShadow_0_1"/>
<feBlend mode="normal" in="SourceGraphic" in2="effect1_dropShadow_0_1" result="shape"/>
</filter>
<filter id="filter1_d_0_1" x="20.6575" y="190.56" width="522.782" height="64.16" filterUnits="userSpaceOnUse" color-interpolation-filters="sRGB">
<feFlood flood-opacity="0" result="BackgroundImageFix"/>
<feColorMatrix in="SourceAlpha" type="matrix" values="0 0 0 0 0 0 0 0 0 0 0 0 0 0 0 0 0 0 127 0" result="hardAlpha"/>
<feOffset dy="4"/>
<feGaussianBlur stdDeviation="2"/>
<feComposite in2="hardAlpha" operator="out"/>
<feColorMatrix type="matrix" values="0 0 0 0 0.333333 0 0 0 0 0.141176 0 0 0 0 0.0588235 0 0 0 0.25 0"/>
<feBlend mode="normal" in2="BackgroundImageFix" result="effect1_dropShadow_0_1"/>
<feBlend mode="normal" in="SourceGraphic" in2="effect1_dropShadow_0_1" result="shape"/>
</filter>
<filter id="filter2_d_0_1" x="465" y="28" width="75" height="79" filterUnits="userSpaceOnUse" color-interpolation-filters="sRGB">
<feFlood flood-opacity="0" result="BackgroundImageFix"/>
<feColorMatrix in="SourceAlpha" type="matrix" values="0 0 0 0 0 0 0 0 0 0 0 0 0 0 0 0 0 0 127 0" result="hardAlpha"/>
<feOffset dy="4"/>
<feGaussianBlur stdDeviation="2"/>
<feComposite in2="hardAlpha" operator="out"/>
<feColorMatrix type="matrix" values="0 0 0 0 1 0 0 0 0 0.584314 0 0 0 0 0 0 0 0 0.25 0"/>
<feBlend mode="normal" in2="BackgroundImageFix" result="effect1_dropShadow_0_1"/>
<feBlend mode="normal" in="SourceGraphic" in2="effect1_dropShadow_0_1" result="shape"/>
</filter>
</defs>
</svg>
